HIERARCHY
ROOT Hips
{
	OFFSET 0.000000 0.000000 0.000000
	CHANNELS 6 Xposition Yposition Zposition Zrotation Yrotation Xrotation 
	JOINT LHipJoint
	{
		OFFSET 0.000000 0.000000 0.000000
		CHANNELS 3 Zrotation Yrotation Xrotation
		JOINT LeftUpLeg
		{
			OFFSET 1.363060 -1.794630 0.839290
			CHANNELS 3 Zrotation Yrotation Xrotation
			JOINT LeftLeg
			{
				OFFSET 2.448110 -6.726130 0.000000
				CHANNELS 3 Zrotation Yrotation Xrotation
				JOINT LeftFoot
				{
					OFFSET 2.562200 -7.039590 0.000000
					CHANNELS 3 Zrotation Yrotation Xrotation
					JOINT LeftToeBase
					{
						OFFSET 0.157640 -0.433110 2.322550
						CHANNELS 3 Zrotation Yrotation Xrotation
						End Site
						{
							OFFSET 0.000000 0.000000 0.000000
						}
					}
				}
			}
		}
	}
	JOINT RHipJoint
	{
		OFFSET 0.000000 0.000000 0.000000
		CHANNELS 3 Zrotation Yrotation Xrotation
		JOINT RightUpLeg
		{
			OFFSET -1.305520 -1.794630 0.839290
			CHANNELS 3 Zrotation Yrotation Xrotation
			JOINT RightLeg
			{
				OFFSET -2.542530 -6.985550 0.000000
				CHANNELS 3 Zrotation Yrotation Xrotation
				JOINT RightFoot
				{
					OFFSET -2.568260 -7.056230 0.000000
					CHANNELS 3 Zrotation Yrotation Xrotation
					JOINT RightToeBase
					{
						OFFSET -0.164730 -0.452590 2.363150
						CHANNELS 3 Zrotation Yrotation Xrotation
						End Site
						{
							OFFSET 0.000000 0.000000 0.000000
						}
					}
				}
			}
		}
	}
	JOINT LowerBack
	{
		OFFSET 0.000000 0.000000 0.000000
		CHANNELS 3 Zrotation Yrotation Xrotation
		JOINT Spine
		{
			OFFSET 0.028270 2.035590 -0.193380
			CHANNELS 3 Zrotation Yrotation Xrotation
			JOINT Spine1
			{
				OFFSET 0.056720 2.048850 -0.042750
				CHANNELS 3 Zrotation Yrotation Xrotation
				JOINT Neck
				{
					OFFSET 0.000000 0.000000 0.000000
					CHANNELS 3 Zrotation Yrotation Xrotation
					JOINT Neck1
					{
						OFFSET -0.054170 1.746240 0.172020
						CHANNELS 3 Zrotation Yrotation Xrotation
						JOINT Head
						{
							OFFSET 0.104070 1.761360 -0.123970
							CHANNELS 3 Zrotation Yrotation Xrotation
							End Site
							{
								OFFSET 0.000000 0.000000 0.000000
							}
						}
					}
				}
				JOINT LeftShoulder
				{
					OFFSET 0.000000 0.000000 0.000000
					CHANNELS 3 Zrotation Yrotation Xrotation
					JOINT LeftArm
					{
						OFFSET 3.362410 1.200890 -0.311210
						CHANNELS 3 Zrotation Yrotation Xrotation
						JOINT LeftForeArm
						{
							OFFSET 4.983000 -0.000000 -0.000000
							CHANNELS 3 Zrotation Yrotation Xrotation
							JOINT LeftHand
							{
								OFFSET 3.483560 -0.000000 -0.000000
								CHANNELS 3 Zrotation Yrotation Xrotation
								JOINT LeftFingerBase
								{
									OFFSET 0.000000 0.000000 0.000000
									CHANNELS 3 Zrotation Yrotation Xrotation
									JOINT LeftHandIndex1
									{
										OFFSET 0.715260 -0.000000 -0.000000
										CHANNELS 3 Zrotation Yrotation Xrotation
										End Site
										{
											OFFSET 0.000000 0.000000 0.000000
										}
									}
								}
								JOINT LThumb
								{
									OFFSET 0.000000 0.000000 0.000000
									CHANNELS 3 Zrotation Yrotation Xrotation
									End Site
									{
										OFFSET 0.000000 0.000000 0.000000
									}
								}
							}
						}
					}
				}
				JOINT RightShoulder
				{
					OFFSET 0.000000 0.000000 0.000000
					CHANNELS 3 Zrotation Yrotation Xrotation
					JOINT RightArm
					{
						OFFSET -3.136600 1.374050 -0.404650
						CHANNELS 3 Zrotation Yrotation Xrotation
						JOINT RightForeArm
						{
							OFFSET -5.241900 -0.000000 -0.000000
							CHANNELS 3 Zrotation Yrotation Xrotation
							JOINT RightHand
							{
								OFFSET -3.444170 -0.000000 -0.000000
								CHANNELS 3 Zrotation Yrotation Xrotation
								JOINT RightFingerBase
								{
									OFFSET 0.000000 0.000000 0.000000
									CHANNELS 3 Zrotation Yrotation Xrotation
									JOINT RightHandIndex1
									{
										OFFSET -0.622530 -0.000000 -0.000000
										CHANNELS 3 Zrotation Yrotation Xrotation
										End Site
										{
											OFFSET 0.000000 0.000000 0.000000
										}
									}
								}
								JOINT RThumb
								{
									OFFSET 0.000000 0.000000 0.000000
									CHANNELS 3 Zrotation Yrotation Xrotation
									End Site
									{
										OFFSET 0.000000 0.000000 0.000000
									}
								}
							}
						}
					}
				}
			}
		}
	}
}
MOTION
Frames: 6
Frame Time: 0.008333
1.777676 17.627989 -0.428228 174.806246 71.120045 168.883541 5.885498 0.814208 0.034619 -27.131761 -11.726888 1.679953 -0.923735 8.485088 23.576990 -3.960432 16.262423 -10.741427 0.578200 -4.869200 -13.535900 -8.840860 0.148477 -2.050552 33.500795 6.006488 -12.048769 -12.644914 -20.801374 69.473665 3.240871 -16.356216 -2.227431 -1.935900 8.731200 -24.958200 -6.732653 0.485014 8.686092 0.836906 1.083926 2.572379 -5.630401 0.377546 4.866382 0.509462 -2.508745 -2.686941 13.589815 -5.116929 17.813015 1.759300 -0.939700 6.047400 6.725152 4.369697 -0.792477 -88.224105 -1.510371 13.306703 11.776290 -14.095861 -1.493762 -3.122528 -3.870643 -6.363179 24.484558 8.986456 6.589100 -7.125000 0.000000 0.000000 0.753600 44.088200 -0.017000 -11.525389 -4.494831 0.331604 103.828463 -4.651783 38.307498 -16.378567 25.603833 -6.194922 0.674205 2.775226 -22.019879 -17.065575 2.757970 -0.113400 7.125000 0.000000 0.000000 6.119800 -29.600700 2.310100 
2.001586 17.615543 -0.554991 174.242852 71.707180 168.256850 5.887282 0.889006 0.026857 -27.661389 -11.104677 2.847957 -0.946791 8.334830 23.411335 -3.937412 16.352769 -11.798938 0.552100 -4.759700 -13.224400 -8.907062 0.200392 -1.938753 33.186330 7.193971 -14.268012 -12.360288 -20.934368 68.787719 3.313986 -16.541510 -4.038381 -1.935400 8.730300 -24.955200 -6.844242 0.384207 8.821249 0.866144 0.936931 2.591592 -5.547269 0.270677 4.839109 0.670599 -2.379576 -2.727823 13.371177 -4.915284 17.994616 1.619300 -0.815800 6.116000 6.701598 4.356554 -0.782479 -88.476211 -1.807236 13.059688 11.786444 -14.033642 -1.482621 -3.144450 -3.832662 -6.302041 24.489787 8.831764 6.496100 -7.125000 0.000000 0.000000 0.788100 43.877300 -0.021800 -11.438326 -4.491260 0.329269 103.757142 -4.776505 37.568466 -16.107368 25.243103 -6.008767 0.655011 2.770864 -21.504511 -16.838816 2.449493 -0.004100 7.125000 0.000000 0.000000 6.350300 -29.936600 2.346900 
2.230565 17.596759 -0.678757 173.574678 72.221785 167.528012 5.895127 0.960139 0.020074 -28.214588 -10.485603 4.028233 -0.973313 8.178484 23.224417 -3.874937 16.349279 -12.844043 0.511100 -4.582400 -12.721200 -8.940560 0.252872 -1.841187 32.778809 8.282747 -16.230358 -11.794067 -20.935214 67.273601 3.359268 -16.703157 -5.756702 -1.924200 8.706300 -24.880800 -6.986419 0.270537 8.949543 0.894579 0.771537 2.611093 -5.441490 0.153824 4.820376 0.831321 -2.261212 -2.780253 13.141795 -4.724463 18.187219 1.473600 -0.695600 6.195200 6.680438 4.351626 -0.778063 -88.736014 -2.056863 12.877848 11.812960 -14.008136 -1.482578 -3.155091 -3.803552 -6.344675 24.477045 8.667784 6.394400 -7.125000 0.000000 0.000000 0.802400 43.658000 -0.026600 -11.346446 -4.490253 0.328718 103.682864 -4.872472 36.806993 -15.811955 24.840817 -5.807886 0.639505 2.753922 -20.942944 -16.555639 2.218835 0.071900 7.125000 0.000000 0.000000 6.623600 -30.175800 2.411000 
2.465192 17.576707 -0.799643 172.848221 72.674076 166.762716 5.902826 1.032285 0.017965 -28.762769 -9.865671 5.254579 -1.019543 7.975700 22.905784 -3.798320 16.313286 -13.814121 0.463200 -4.365300 -12.106800 -8.942873 0.301613 -1.760697 32.298545 9.241105 -17.920975 -10.964290 -20.782921 64.964046 3.406122 -16.944895 -7.394757 -1.898400 8.651200 -24.710200 -7.132092 0.147141 9.057804 0.922816 0.593467 2.625413 -5.325654 0.030524 4.800998 0.978417 -2.148247 -2.833033 12.914806 -4.538658 18.382865 1.332800 -0.577800 6.279300 6.666360 4.357566 -0.780730 -88.990688 -2.241525 12.821981 11.858909 -14.028701 -1.497207 -3.146924 -3.792386 -6.506270 24.424660 8.536627 6.303200 -7.125000 0.000000 0.000000 0.767600 43.483800 -0.028700 -11.259032 -4.496547 0.329614 103.601996 -4.976241 36.066344 -15.514202 24.430720 -5.607146 0.629173 2.728839 -20.469088 -16.260618 2.086955 0.109300 7.125000 0.000000 0.000000 6.895000 -30.298300 2.490800 
2.706502 17.562187 -0.917648 172.146054 73.075189 166.049363 5.905513 1.110932 0.023309 -29.265598 -9.230711 6.568557 -1.098871 7.687525 22.354748 -3.734250 16.304594 -14.648076 0.416400 -4.142200 -11.477100 -8.918440 0.342885 -1.699248 31.790167 10.055772 -19.298104 -9.895720 -20.448604 61.897634 3.478254 -17.344298 -8.989379 -1.862900 8.574600 -24.473300 -7.243308 0.018180 9.138430 0.952265 0.411391 2.632630 -5.217573 -0.094022 4.779350 1.101850 -2.042345 -2.880298 12.703688 -4.361864 18.574165 1.206900 -0.466200 6.363900 6.662489 4.373775 -0.790150 -89.228908 -2.363779 12.937258 11.924849 -14.096211 -1.527891 -3.117932 -3.800751 -6.795206 24.327289 8.445580 6.225600 -7.125000 0.000000 0.000000 0.677100 43.363800 -0.027300 -11.184907 -4.513104 0.331383 103.520314 -5.120399 35.352267 -15.242585 24.059056 -5.428064 0.615106 2.706674 -20.119981 -15.965569 1.962738 0.142800 7.125000 0.000000 0.000000 7.164300 -30.412500 2.569700 
2.954727 17.555734 -1.032426 171.540269 73.435745 165.454869 5.901630 1.199862 0.036574 -29.691068 -8.575174 8.009365 -1.218356 7.286359 21.503894 -3.702336 16.365507 -15.311026 0.369000 -3.901700 -10.800300 -8.874242 0.374848 -1.656887 31.299587 10.734775 -20.330351 -8.634818 -19.907808 58.162253 3.582850 -17.918047 -10.605568 -1.809900 8.458300 -24.114900 -7.301902 -0.111843 9.178917 0.985899 0.234813 2.636922 -5.117919 -0.215869 4.771433 1.194387 -1.942738 -2.921700 12.519019 -4.195386 18.750880 1.101400 -0.362900 6.442400 6.669972 4.396610 -0.804232 -89.452331 -2.438914 13.242291 12.014007 -14.214005 -1.575655 -3.072746 -3.829732 -7.220000 24.214426 8.395389 6.171400 -7.125000 0.000000 0.000000 0.563300 43.303200 -0.023600 -11.126609 -4.541823 0.333966 103.435688 -5.316897 34.683012 -15.010795 23.749075 -5.278995 0.599280 2.690262 -19.916528 -15.702023 1.851733 0.172100 7.125000 0.000000 0.000000 7.403300 -30.515400 2.638300 
